<!DOCTYPE svg PUBLIC "-//W3C//DTD SVG 1.1//EN" "http://www.w3.org/Graphics/SVG/1.1/DTD/svg11.dtd">
<svg fill="#ffffff" width="200px" height="200px" viewBox="-25.6 -25.6 307.20 307.20" id="SVGRepoEditor" xmlns="http://www.w3.org/2000/svg" stroke="#ffffff" stroke-width="0">
<g id="SVGRepo_bgCarrier" stroke-width="0">
<rect x="-25.6" y="-25.6" width="307.20" height="307.20" rx="153.6" fill="#1f1f1f" strokewidth="0"/>
</g> <path d="M79.99414,127.99609v-64a48,48,0,1,1,96,0v64.00782a48,48,0,0,1-96-.00782Zm120.4375.05469a8.07828,8.07828,0,0,0-8.82812,7.07813,64.00856,64.00856,0,0,1-127.21875-.00782,8.09865,8.09865,0,0,0-8.82813-7.07031,8.01056,8.01056,0,0,0-7.07812,8.83594A79.60051,79.60051,0,0,0,119.99414,207.251v24.74511a8,8,0,1,0,16,0V207.252a79.577,79.577,0,0,0,71.51563-70.373A8.00321,8.00321,0,0,0,200.43164,128.05078Z"/> </svg>